<svg viewBox="505 293 1490 338" fill="none" xmlns="http://www.w3.org/2000/svg">
<path d="M1189.28 392.343V410.664H1159.58V491.439H1137.79V410.664H1108.08V392.343H1189.28Z" fill="#140D4D"/>
<path d="M1251.32 456.742C1251.32 457.852 1251.18 460.35 1251.18 460.35H1199.41C1199.96 472.703 1205.65 478.532 1216.9 478.532C1224.39 478.532 1231.05 474.229 1232.58 469.233H1249.93C1244.65 485.471 1233.55 493.382 1216.34 493.382C1193.58 493.382 1179.7 477.699 1179.7 455.632C1179.7 433.564 1194.69 417.742 1216.34 417.742C1237.99 417.742 1251.32 435.507 1251.32 456.742ZM1231.47 447.859C1229.53 437.034 1224.81 432.592 1215.65 432.592C1206.49 432.592 1200.24 438.422 1199.41 447.859H1231.47Z" fill="#140D4D"/>
<path d="M1275.6 419.685L1291.84 468.817H1292.12L1307.8 419.685H1328.21L1298.23 500.461C1294.06 511.703 1287.12 516.699 1273.8 516.699C1269.08 516.699 1265.61 516.421 1261.45 516.005V499.767C1265.61 500.322 1269.08 500.461 1271.86 500.461C1277.41 500.461 1280.6 496.575 1280.6 491.439C1280.6 490.19 1280.46 488.941 1279.77 486.998L1254.51 419.685H1275.6Z" fill="#140D4D"/>
<path d="M1355.13 392.343V491.439H1335.42V392.343H1355.13Z" fill="#140D4D"/>
<path d="M1390.94 392.343V408.582H1371.23V392.343H1390.94ZM1390.94 419.685V491.439H1371.23V419.685H1390.94Z" fill="#140D4D"/>
<path d="M1473.8 446.749V491.439H1454.09V450.774C1454.09 438.977 1450.62 433.286 1441.46 433.286C1429.24 433.286 1426.19 441.336 1426.19 454.105V491.439H1406.48V419.685H1425.22V429.678H1425.64C1430.35 422.044 1438.4 417.742 1447.7 417.742C1465.89 417.742 1473.8 426.625 1473.8 446.749Z" fill="#140D4D"/>
<path d="M1538.75 429.262H1539.03V419.685H1557.76V486.998C1557.76 505.596 1546.94 518.642 1520.71 518.642C1504.05 518.642 1489.76 510.176 1488.92 495.603H1508.49C1510.16 502.543 1515.57 505.457 1523.21 505.457C1533.34 505.457 1539.03 499.073 1539.03 488.108V478.254H1538.75C1534.86 485.194 1526.95 489.358 1517.24 489.358C1496.56 489.358 1486.56 474.229 1486.56 453.272C1486.56 434.952 1497.25 417.742 1517.38 417.742C1527.65 417.742 1534.31 421.628 1538.75 429.262ZM1522.23 474.507C1532.92 474.507 1539.03 465.763 1539.03 454.521C1539.03 444.528 1535.97 432.592 1522.09 432.592C1511.96 432.592 1506.27 441.197 1506.27 452.995C1506.27 464.792 1510.85 474.507 1522.23 474.507Z" fill="#140D4D"/>
<path d="M1641.73 456.742C1641.73 457.852 1641.59 460.35 1641.59 460.35H1589.82C1590.38 472.703 1596.07 478.532 1607.31 478.532C1614.81 478.532 1621.47 474.229 1622.99 469.233H1640.34C1635.07 485.471 1623.97 493.382 1606.76 493.382C1583.99 493.382 1570.12 477.699 1570.12 455.632C1570.12 433.564 1585.11 417.742 1606.76 417.742C1628.41 417.742 1641.73 435.507 1641.73 456.742ZM1621.88 447.859C1619.94 437.034 1615.22 432.592 1606.06 432.592C1596.9 432.592 1590.66 438.422 1589.82 447.859H1621.88Z" fill="#140D4D"/>
<path d="M1699.47 418.436V436.756C1697.53 436.34 1695.17 436.062 1692.39 436.062C1678.09 436.062 1672.96 445.916 1672.96 459.101V491.439H1653.25V419.685H1671.99V433.009H1672.27C1676.01 423.988 1685.31 417.742 1695.17 417.742C1697.11 417.742 1698.5 418.158 1699.47 418.436Z" fill="#140D4D"/>
<path d="M1772.89 456.742C1772.89 457.852 1772.75 460.35 1772.75 460.35H1720.98C1721.54 472.703 1727.23 478.532 1738.47 478.532C1745.96 478.532 1752.62 474.229 1754.15 469.233H1771.5C1766.23 485.471 1755.12 493.382 1737.91 493.382C1715.15 493.382 1701.27 477.699 1701.27 455.632C1701.27 433.564 1716.26 417.742 1737.91 417.742C1759.56 417.742 1772.89 435.507 1772.89 456.742ZM1753.04 447.859C1751.1 437.034 1746.38 432.592 1737.22 432.592C1728.06 432.592 1721.81 438.422 1720.98 447.859H1753.04Z" fill="#140D4D"/>
<path d="M1804.67 392.343V408.582H1784.96V392.343H1804.67ZM1804.67 419.685V491.439H1784.96V419.685H1804.67Z" fill="#140D4D"/>
<path d="M1887.53 446.749V491.439H1867.82V450.774C1867.82 438.977 1864.35 433.286 1855.19 433.286C1842.98 433.286 1839.92 441.336 1839.92 454.105V491.439H1820.22V419.685H1838.95V429.678H1839.37C1844.09 422.044 1852.14 417.742 1861.44 417.742C1879.62 417.742 1887.53 426.625 1887.53 446.749Z" fill="#140D4D"/>
<path d="M1972.47 392.343V491.439H1953.73V482.279H1953.45C1949.15 489.635 1941.52 493.382 1931.66 493.382C1910.29 493.382 1899.46 475.34 1899.46 454.938C1899.46 434.535 1910.57 417.742 1931.25 417.742C1939.85 417.742 1948.18 421.489 1952.48 428.429H1952.76V392.343H1972.47ZM1936.51 478.532C1947.75 478.532 1953.44 469.788 1953.44 455.354C1953.44 442.308 1948.44 432.592 1936.37 432.592C1925.13 432.592 1919.16 441.614 1919.16 455.493C1919.16 466.874 1924.43 478.532 1936.51 478.532Z" fill="#140D4D"/>
<path d="M1117.97 543.859H1148.76V550.604H1125.78V562.276H1145.96V568.646H1125.78V588.438H1117.98V543.845L1117.97 543.859Z" fill="#140D4D"/>
<path d="M1168.81 589.326C1166.22 589.326 1163.92 588.896 1161.91 588.049C1159.88 587.203 1158.17 586.023 1156.79 584.524C1155.38 583.025 1154.33 581.235 1153.61 579.153C1152.87 577.071 1152.51 574.781 1152.51 572.283C1152.51 569.785 1152.87 567.564 1153.61 565.482C1154.33 563.4 1155.4 561.61 1156.79 560.111C1158.17 558.612 1159.88 557.432 1161.91 556.586C1163.92 555.739 1166.22 555.309 1168.81 555.309C1171.39 555.309 1173.69 555.739 1175.7 556.586C1177.73 557.446 1179.42 558.612 1180.82 560.111C1182.21 561.61 1183.28 563.4 1184 565.482C1184.72 567.564 1185.1 569.826 1185.1 572.283C1185.1 574.739 1184.74 577.071 1184 579.153C1183.28 581.235 1182.21 583.025 1180.82 584.524C1179.42 586.023 1177.73 587.203 1175.7 588.049C1173.68 588.91 1171.39 589.326 1168.81 589.326ZM1168.81 583.705C1170.39 583.705 1171.76 583.372 1172.93 582.706C1174.09 582.04 1175.05 581.165 1175.8 580.083C1176.55 579 1177.11 577.779 1177.45 576.433C1177.8 575.086 1177.98 573.698 1177.98 572.283C1177.98 570.867 1177.8 569.535 1177.45 568.161C1177.09 566.787 1176.55 565.565 1175.8 564.51C1175.05 563.456 1174.09 562.581 1172.93 561.915C1171.76 561.249 1170.39 560.916 1168.81 560.916C1167.22 560.916 1165.85 561.249 1164.68 561.915C1163.52 562.581 1162.56 563.442 1161.81 564.51C1161.06 565.579 1160.51 566.787 1160.16 568.161C1159.81 569.535 1159.63 570.909 1159.63 572.283C1159.63 573.657 1159.81 575.086 1160.16 576.433C1160.51 577.779 1161.06 579 1161.81 580.083C1162.56 581.165 1163.52 582.04 1164.68 582.706C1165.85 583.372 1167.22 583.705 1168.81 583.705Z" fill="#140D4D"/>
<path d="M1191.04 556.155H1197.72V562.401H1197.84C1198.05 561.526 1198.45 560.666 1199.06 559.833C1199.66 559.001 1200.39 558.237 1201.25 557.557C1202.1 556.877 1203.06 556.322 1204.1 555.906C1205.14 555.489 1206.2 555.281 1207.28 555.281C1208.11 555.281 1208.68 555.295 1209 555.336C1209.3 555.378 1209.64 555.42 1209.97 555.461V562.331C1209.47 562.248 1208.96 562.179 1208.44 562.109C1207.92 562.054 1207.42 562.012 1206.92 562.012C1205.71 562.012 1204.57 562.248 1203.52 562.734C1202.45 563.22 1201.53 563.928 1200.74 564.857C1199.95 565.787 1199.33 566.953 1198.87 568.327C1198.41 569.701 1198.17 571.283 1198.17 573.074V588.438H1191.05V556.155H1191.04Z" fill="#140D4D"/>
<path d="M1217.45 574.143C1217.45 575.392 1217.63 576.599 1217.98 577.765C1218.33 578.931 1218.87 579.958 1219.57 580.832C1220.28 581.707 1221.17 582.401 1222.27 582.928C1223.35 583.455 1224.64 583.705 1226.14 583.705C1228.22 583.705 1229.9 583.261 1231.16 582.359C1232.43 581.471 1233.38 580.124 1234.01 578.334H1240.75C1240.38 580.083 1239.73 581.637 1238.81 583.025C1237.89 584.399 1236.78 585.551 1235.49 586.495C1234.2 587.439 1232.76 588.146 1231.15 588.618C1229.54 589.09 1227.87 589.34 1226.13 589.34C1223.59 589.34 1221.34 588.924 1219.38 588.091C1217.42 587.258 1215.77 586.092 1214.41 584.593C1213.05 583.094 1212.04 581.304 1211.34 579.222C1210.65 577.14 1210.32 574.85 1210.32 572.352C1210.32 570.062 1210.68 567.883 1211.41 565.829C1212.15 563.775 1213.18 561.957 1214.54 560.388C1215.88 558.834 1217.52 557.585 1219.44 556.669C1221.35 555.753 1223.52 555.295 1225.93 555.295C1228.47 555.295 1230.75 555.822 1232.77 556.891C1234.79 557.946 1236.47 559.361 1237.8 561.11C1239.13 562.859 1240.1 564.871 1240.7 567.134C1241.3 569.396 1241.46 571.741 1241.17 574.156H1217.44L1217.45 574.143ZM1234.06 569.465C1233.98 568.341 1233.74 567.259 1233.34 566.218C1232.94 565.177 1232.4 564.275 1231.72 563.497C1231.04 562.734 1230.19 562.109 1229.22 561.624C1228.24 561.152 1227.15 560.902 1225.95 560.902C1224.74 560.902 1223.56 561.124 1222.54 561.554C1221.52 561.985 1220.64 562.595 1219.92 563.359C1219.19 564.136 1218.62 565.038 1218.17 566.079C1217.74 567.12 1217.49 568.244 1217.45 569.451H1234.06V569.465Z" fill="#140D4D"/>
<path d="M1246.63 556.155H1253.37V560.902L1253.5 561.027C1254.58 559.236 1255.99 557.835 1257.74 556.808C1259.49 555.794 1261.43 555.281 1263.56 555.281C1267.1 555.281 1269.89 556.197 1271.93 558.029C1273.97 559.861 1274.99 562.609 1274.99 566.273V588.438H1267.87V568.147C1267.79 565.607 1267.25 563.761 1266.25 562.623C1265.25 561.471 1263.68 560.902 1261.56 560.902C1260.35 560.902 1259.27 561.124 1258.31 561.554C1257.35 561.985 1256.53 562.595 1255.87 563.359C1255.2 564.136 1254.69 565.038 1254.31 566.079C1253.94 567.12 1253.76 568.23 1253.76 569.396V588.438H1246.64V556.155H1246.63Z" fill="#140D4D"/>
<path d="M1287.85 578.084C1288.05 580.166 1288.84 581.623 1290.22 582.456C1291.59 583.289 1293.23 583.705 1295.16 583.705C1295.83 583.705 1296.59 583.65 1297.44 583.552C1298.28 583.441 1299.09 583.247 1299.84 582.956C1300.59 582.664 1301.2 582.234 1301.68 581.679C1302.15 581.124 1302.38 580.374 1302.34 579.458C1302.29 578.542 1301.96 577.793 1301.34 577.21C1300.71 576.627 1299.91 576.155 1298.93 575.808C1297.95 575.461 1296.84 575.156 1295.59 574.906C1294.34 574.656 1293.06 574.378 1291.77 574.101C1290.44 573.809 1289.16 573.462 1287.93 573.032C1286.69 572.616 1285.6 572.061 1284.61 571.353C1283.63 570.645 1282.85 569.743 1282.27 568.633C1281.68 567.536 1281.39 566.162 1281.39 564.538C1281.39 562.789 1281.82 561.318 1282.67 560.139C1283.52 558.945 1284.61 558.001 1285.92 557.266C1287.23 556.544 1288.69 556.03 1290.29 555.739C1291.88 555.448 1293.42 555.309 1294.88 555.309C1296.55 555.309 1298.14 555.489 1299.66 555.836C1301.17 556.197 1302.54 556.766 1303.78 557.557C1305 558.348 1306.03 559.375 1306.83 560.652C1307.64 561.929 1308.15 563.456 1308.36 565.246H1300.93C1300.6 563.539 1299.82 562.401 1298.59 561.818C1297.35 561.235 1295.95 560.944 1294.37 560.944C1293.87 560.944 1293.27 560.985 1292.59 561.069C1291.9 561.152 1291.26 561.304 1290.65 561.54C1290.04 561.776 1289.54 562.109 1289.12 562.54C1288.71 562.97 1288.5 563.553 1288.5 564.261C1288.5 565.135 1288.8 565.843 1289.4 566.384C1290 566.925 1290.79 567.37 1291.77 567.73C1292.74 568.091 1293.87 568.383 1295.12 568.633C1296.37 568.882 1297.66 569.16 1298.99 569.438C1300.28 569.729 1301.56 570.076 1302.81 570.492C1304.06 570.909 1305.17 571.478 1306.15 572.172C1307.14 572.88 1307.93 573.782 1308.53 574.864C1309.12 575.947 1309.43 577.279 1309.43 578.861C1309.43 580.777 1308.98 582.401 1308.11 583.733C1307.23 585.065 1306.1 586.148 1304.71 586.981C1303.31 587.813 1301.77 588.424 1300.06 588.785C1298.35 589.16 1296.66 589.354 1294.99 589.354C1292.95 589.354 1291.07 589.118 1289.34 588.66C1287.61 588.202 1286.11 587.508 1284.85 586.564C1283.57 585.62 1282.57 584.468 1281.85 583.067C1281.11 581.679 1280.74 580.013 1280.7 578.098H1287.82L1287.85 578.084Z" fill="#140D4D"/>
<path d="M1315.08 543.859H1322.2V550.604H1315.08V543.859ZM1315.08 556.155H1322.2V588.438H1315.08V556.155Z" fill="#140D4D"/>
<path d="M1335.31 578.084C1335.52 580.166 1336.31 581.623 1337.68 582.456C1339.06 583.289 1340.7 583.705 1342.63 583.705C1343.29 583.705 1344.06 583.65 1344.9 583.552C1345.75 583.441 1346.55 583.247 1347.3 582.956C1348.05 582.664 1348.66 582.234 1349.15 581.679C1349.62 581.124 1349.84 580.374 1349.8 579.458C1349.76 578.542 1349.43 577.793 1348.8 577.21C1348.18 576.627 1347.37 576.155 1346.4 575.808C1345.42 575.461 1344.31 575.156 1343.06 574.906C1341.81 574.656 1340.53 574.378 1339.24 574.101C1337.91 573.809 1336.63 573.462 1335.39 573.032C1334.16 572.616 1333.06 572.061 1332.08 571.353C1331.09 570.645 1330.32 569.743 1329.73 568.633C1329.15 567.522 1328.86 566.162 1328.86 564.538C1328.86 562.789 1329.29 561.318 1330.13 560.139C1330.98 558.945 1332.06 558.001 1333.38 557.266C1334.7 556.544 1336.16 556.03 1337.75 555.739C1339.35 555.448 1340.89 555.309 1342.35 555.309C1344.01 555.309 1345.61 555.489 1347.12 555.836C1348.64 556.197 1350.01 556.766 1351.24 557.557C1352.47 558.348 1353.49 559.375 1354.31 560.652C1355.12 561.929 1355.63 563.456 1355.84 565.246H1348.4C1348.07 563.539 1347.29 562.401 1346.05 561.818C1344.82 561.235 1343.42 560.944 1341.83 560.944C1341.34 560.944 1340.74 560.985 1340.06 561.069C1339.36 561.152 1338.73 561.304 1338.12 561.54C1337.5 561.776 1337 562.109 1336.59 562.54C1336.17 562.97 1335.96 563.553 1335.96 564.261C1335.96 565.135 1336.27 565.843 1336.87 566.384C1337.46 566.925 1338.25 567.37 1339.24 567.73C1340.21 568.091 1341.34 568.383 1342.58 568.633C1343.83 568.882 1345.12 569.16 1346.46 569.438C1347.75 569.729 1349.01 570.076 1350.27 570.492C1351.52 570.909 1352.63 571.478 1353.62 572.172C1354.59 572.88 1355.38 573.782 1355.99 574.864C1356.59 575.947 1356.89 577.279 1356.89 578.861C1356.89 580.777 1356.46 582.401 1355.57 583.733C1354.7 585.065 1353.56 586.148 1352.17 586.981C1350.77 587.813 1349.23 588.424 1347.53 588.785C1345.82 589.16 1344.12 589.354 1342.47 589.354C1340.43 589.354 1338.55 589.118 1336.82 588.66C1335.09 588.202 1333.59 587.508 1332.33 586.564C1331.05 585.62 1330.05 584.468 1329.33 583.067C1328.59 581.679 1328.22 580.013 1328.18 578.098H1335.3L1335.31 578.084Z" fill="#140D4D"/>
<path d="M1384.15 566.967C1383.86 564.968 1383.06 563.456 1381.75 562.443C1380.45 561.415 1378.78 560.916 1376.78 560.916C1375.87 560.916 1374.88 561.068 1373.84 561.388C1372.8 561.707 1371.84 562.29 1370.97 563.136C1370.09 563.997 1369.36 565.177 1368.77 566.689C1368.19 568.216 1367.9 570.201 1367.9 572.657C1367.9 573.99 1368.05 575.322 1368.37 576.655C1368.69 577.987 1369.18 579.181 1369.87 580.208C1370.56 581.249 1371.44 582.095 1372.52 582.734C1373.6 583.372 1374.91 583.705 1376.45 583.705C1378.53 583.705 1380.25 583.067 1381.6 581.762C1382.94 580.471 1383.79 578.667 1384.12 576.322H1391.24C1390.58 580.527 1388.98 583.747 1386.47 585.967C1383.94 588.202 1380.61 589.312 1376.45 589.312C1373.91 589.312 1371.67 588.882 1369.73 588.035C1367.8 587.189 1366.16 586.023 1364.83 584.538C1363.5 583.067 1362.49 581.304 1361.81 579.264C1361.11 577.224 1360.78 575.017 1360.78 572.644C1360.78 570.27 1361.11 567.952 1361.78 565.829C1362.45 563.705 1363.44 561.86 1364.78 560.305C1366.11 558.751 1367.76 557.515 1369.75 556.613C1371.72 555.725 1374.05 555.267 1376.71 555.267C1378.59 555.267 1380.36 555.503 1382.06 555.989C1383.74 556.475 1385.23 557.182 1386.55 558.14C1387.86 559.098 1388.94 560.305 1389.77 561.762C1390.61 563.22 1391.11 564.941 1391.27 566.939H1384.15V566.967Z" fill="#140D4D"/>
<path d="M1397.07 543.859H1404.19V560.402H1404.32C1405.19 558.945 1406.5 557.724 1408.22 556.752C1409.95 555.781 1411.87 555.281 1413.99 555.281C1417.53 555.281 1420.32 556.197 1422.36 558.029C1424.4 559.861 1425.43 562.609 1425.43 566.273V588.438H1418.31V568.147C1418.22 565.607 1417.68 563.761 1416.68 562.623C1415.68 561.485 1414.13 560.902 1411.99 560.902C1410.79 560.902 1409.7 561.124 1408.75 561.554C1407.79 561.985 1406.97 562.595 1406.32 563.359C1405.65 564.136 1405.12 565.038 1404.76 566.079C1404.39 567.12 1404.19 568.23 1404.19 569.396V588.438H1397.07V543.845V543.859Z" fill="#140D4D"/>
<path d="M1481.39 558.029C1481.06 556.738 1480.6 555.559 1480.01 554.462C1479.43 553.38 1478.68 552.45 1477.77 551.659C1476.85 550.867 1475.78 550.257 1474.55 549.813C1473.32 549.369 1471.89 549.16 1470.27 549.16C1467.9 549.16 1465.84 549.632 1464.12 550.604C1462.39 551.561 1460.99 552.838 1459.9 554.448C1458.82 556.058 1458.02 557.876 1457.5 559.917C1456.98 561.957 1456.73 564.039 1456.73 566.162C1456.73 568.286 1456.99 570.367 1457.5 572.408C1458.03 574.448 1458.82 576.266 1459.9 577.876C1460.99 579.486 1462.39 580.763 1464.12 581.72C1465.84 582.678 1467.9 583.164 1470.27 583.164C1472.02 583.164 1473.56 582.859 1474.89 582.262C1476.23 581.665 1477.36 580.818 1478.32 579.764C1479.28 578.695 1480.03 577.46 1480.57 576.044C1481.11 574.628 1481.46 573.102 1481.62 571.478H1489.24C1489.08 574.143 1488.51 576.585 1487.52 578.792C1486.54 580.999 1485.22 582.9 1483.55 584.51C1481.89 586.12 1479.93 587.355 1477.68 588.23C1475.43 589.104 1472.95 589.534 1470.26 589.534C1466.93 589.534 1463.94 588.924 1461.29 587.688C1458.64 586.453 1456.41 584.788 1454.57 582.664C1452.74 580.541 1451.34 578.056 1450.35 575.225C1449.37 572.394 1448.88 569.382 1448.88 566.162C1448.88 562.942 1449.37 560 1450.35 557.169C1451.34 554.337 1452.74 551.853 1454.57 549.729C1456.41 547.606 1458.64 545.927 1461.29 544.677C1463.94 543.428 1466.93 542.804 1470.26 542.804C1472.76 542.804 1475.1 543.151 1477.31 543.831C1479.51 544.525 1481.46 545.51 1483.15 546.829C1484.83 548.133 1486.2 549.729 1487.25 551.603C1488.29 553.477 1488.94 555.628 1489.19 558.029H1481.39Z" fill="#140D4D"/>
<path d="M1500.94 574.143C1500.94 575.392 1501.12 576.599 1501.47 577.765C1501.82 578.931 1502.36 579.958 1503.07 580.832C1503.77 581.707 1504.66 582.401 1505.75 582.928C1506.83 583.455 1508.12 583.705 1509.62 583.705C1511.7 583.705 1513.38 583.261 1514.64 582.359C1515.9 581.471 1516.86 580.124 1517.49 578.334H1524.23C1523.86 580.083 1523.21 581.637 1522.3 583.025C1521.39 584.399 1520.28 585.551 1518.99 586.495C1517.7 587.439 1516.25 588.146 1514.64 588.618C1513.03 589.09 1511.37 589.34 1509.62 589.34C1507.08 589.34 1504.83 588.924 1502.87 588.091C1500.92 587.258 1499.26 586.092 1497.9 584.593C1496.54 583.094 1495.53 581.304 1494.84 579.222C1494.14 577.14 1493.81 574.85 1493.81 572.352C1493.81 570.062 1494.17 567.883 1494.91 565.829C1495.64 563.761 1496.68 561.957 1498.03 560.388C1499.37 558.82 1501.01 557.585 1502.93 556.669C1504.84 555.753 1507.01 555.295 1509.42 555.295C1511.96 555.295 1514.24 555.822 1516.27 556.891C1518.28 557.946 1519.96 559.361 1521.29 561.11C1522.62 562.859 1523.59 564.871 1524.19 567.134C1524.79 569.396 1524.95 571.741 1524.66 574.156H1500.93L1500.94 574.143ZM1517.56 569.465C1517.47 568.341 1517.24 567.259 1516.83 566.218C1516.43 565.177 1515.89 564.275 1515.21 563.497C1514.53 562.734 1513.7 562.109 1512.71 561.624C1511.73 561.138 1510.64 560.902 1509.44 560.902C1508.23 560.902 1507.05 561.124 1506.04 561.554C1505.01 561.985 1504.14 562.595 1503.41 563.359C1502.68 564.136 1502.11 565.038 1501.66 566.079C1501.23 567.12 1500.98 568.244 1500.94 569.451H1517.56V569.465Z" fill="#140D4D"/>
<path d="M1530.1 556.155H1536.85V560.902L1536.97 561.027C1538.06 559.236 1539.47 557.835 1541.22 556.808C1542.97 555.794 1544.91 555.281 1547.02 555.281C1550.56 555.281 1553.35 556.197 1555.39 558.029C1557.43 559.861 1558.46 562.609 1558.46 566.273V588.438H1551.34V568.147C1551.26 565.607 1550.71 563.761 1549.71 562.623C1548.72 561.471 1547.15 560.902 1545.02 560.902C1543.82 560.902 1542.73 561.124 1541.78 561.554C1540.82 561.985 1540 562.595 1539.33 563.359C1538.67 564.136 1538.15 565.038 1537.78 566.079C1537.4 567.12 1537.22 568.23 1537.22 569.396V588.438H1530.1V556.155Z" fill="#140D4D"/>
<path d="M1562.7 556.155H1568.08V546.468H1575.2V556.155H1581.62V561.457H1575.2V578.695C1575.2 579.444 1575.22 580.083 1575.29 580.624C1575.35 581.165 1575.5 581.623 1575.74 581.998C1575.96 582.373 1576.31 582.65 1576.76 582.844C1577.22 583.025 1577.85 583.122 1578.64 583.122C1579.14 583.122 1579.64 583.122 1580.14 583.094C1580.64 583.08 1581.14 582.997 1581.64 582.872V588.368C1580.84 588.452 1580.08 588.535 1579.32 588.618C1578.57 588.701 1577.79 588.743 1577 588.743C1575.13 588.743 1573.61 588.563 1572.48 588.216C1571.32 587.869 1570.44 587.341 1569.8 586.661C1569.14 585.967 1568.71 585.107 1568.48 584.066C1568.24 583.025 1568.12 581.845 1568.08 580.513V561.457H1562.7V556.155Z" fill="#140D4D"/>
<path d="M1586.76 556.155H1593.45V562.401H1593.57C1593.78 561.526 1594.18 560.666 1594.79 559.833C1595.39 559.001 1596.13 558.237 1596.99 557.557C1597.83 556.877 1598.79 556.322 1599.83 555.906C1600.87 555.489 1601.93 555.281 1603.01 555.281C1603.84 555.281 1604.41 555.295 1604.73 555.336C1605.05 555.378 1605.37 555.42 1605.7 555.461V562.331C1605.2 562.248 1604.69 562.179 1604.18 562.109C1603.66 562.04 1603.15 562.012 1602.65 562.012C1601.44 562.012 1600.3 562.248 1599.25 562.734C1598.19 563.22 1597.26 563.928 1596.47 564.857C1595.68 565.787 1595.06 566.953 1594.6 568.327C1594.14 569.701 1593.9 571.283 1593.9 573.074V588.438H1586.78V556.155H1586.76Z" fill="#140D4D"/>
<path d="M1637.1 588.452H1630.1V583.955H1629.98C1629.1 585.579 1627.8 586.884 1626.08 587.855C1624.34 588.841 1622.59 589.326 1620.8 589.326C1616.56 589.326 1613.49 588.272 1611.59 586.176C1609.68 584.08 1608.74 580.902 1608.74 576.655V556.169H1615.86V575.961C1615.86 578.792 1616.4 580.791 1617.48 581.957C1618.57 583.122 1620.09 583.705 1622.05 583.705C1623.55 583.705 1624.8 583.469 1625.8 583.011C1626.8 582.553 1627.6 581.943 1628.23 581.165C1628.85 580.388 1629.3 579.472 1629.57 578.39C1629.84 577.307 1629.98 576.141 1629.98 574.892V556.156H1637.1V588.438V588.452Z" fill="#140D4D"/>
<path d="M1644.59 556.155H1651.34V560.652H1651.52C1652.06 559.861 1652.64 559.139 1653.27 558.473C1653.89 557.807 1654.58 557.252 1655.36 556.78C1656.12 556.322 1657.01 555.961 1658.01 555.683C1659.01 555.42 1660.15 555.281 1661.44 555.281C1663.4 555.281 1665.22 555.711 1666.91 556.586C1668.6 557.46 1669.8 558.82 1670.5 560.638C1671.71 558.973 1673.1 557.668 1674.68 556.71C1676.26 555.753 1678.25 555.281 1680.62 555.281C1684.03 555.281 1686.69 556.114 1688.59 557.779C1690.47 559.445 1691.43 562.234 1691.43 566.148V588.452H1684.31V569.59C1684.31 568.299 1684.27 567.12 1684.19 566.065C1684.1 565.01 1683.87 564.094 1683.47 563.317C1683.06 562.554 1682.48 561.957 1681.69 561.54C1680.9 561.124 1679.82 560.916 1678.44 560.916C1676.03 560.916 1674.28 561.665 1673.2 563.164C1672.11 564.663 1671.57 566.787 1671.57 569.535V588.452H1664.45V567.717C1664.45 565.468 1664.05 563.775 1663.23 562.623C1662.41 561.471 1660.93 560.902 1658.76 560.902C1657.85 560.902 1656.96 561.082 1656.11 561.457C1655.25 561.832 1654.5 562.373 1653.86 563.081C1653.22 563.789 1652.7 564.663 1652.31 565.704C1651.92 566.745 1651.71 567.939 1651.71 569.257V588.438H1644.59V556.155Z" fill="#140D4D"/>
<path d="M1741.33 574.086C1741.33 576.043 1741.17 577.93 1740.83 579.762C1740.5 581.594 1739.82 583.232 1738.81 584.689C1737.78 586.146 1736.31 587.312 1734.37 588.187C1732.42 589.061 1729.86 589.491 1726.65 589.491C1724.28 589.491 1722.25 589.13 1720.58 588.395C1718.92 587.659 1717.55 586.674 1716.46 585.397C1715.38 584.12 1714.59 582.621 1714.09 580.872C1713.59 579.124 1713.34 577.236 1713.34 575.196V572.823H1721.14V575.14C1721.14 577.68 1721.57 579.651 1722.42 581.039C1723.26 582.427 1724.89 583.135 1727.26 583.135C1728.51 583.135 1729.54 582.954 1730.36 582.566C1731.16 582.191 1731.81 581.636 1732.28 580.914C1732.76 580.192 1733.09 579.276 1733.26 578.194C1733.42 577.111 1733.51 575.876 1733.51 574.502V543.843H1741.31V574.072L1741.33 574.086Z" fill="#140D4D"/>
<path d="M1755.38 574.141C1755.38 575.39 1755.56 576.598 1755.91 577.763C1756.25 578.929 1756.79 579.956 1757.5 580.831C1758.21 581.705 1759.1 582.399 1760.18 582.926C1761.26 583.454 1762.55 583.704 1764.05 583.704C1766.14 583.704 1767.81 583.26 1769.08 582.357C1770.35 581.469 1771.3 580.123 1771.92 578.333H1778.67C1778.29 580.081 1777.64 581.636 1776.73 583.024C1775.81 584.412 1774.7 585.55 1773.42 586.493C1772.13 587.437 1770.69 588.145 1769.08 588.617C1767.48 589.089 1765.8 589.339 1764.05 589.339C1761.51 589.339 1759.27 588.922 1757.31 588.089C1755.35 587.257 1753.7 586.091 1752.34 584.592C1750.98 583.093 1749.97 581.303 1749.27 579.221C1748.58 577.139 1748.25 574.849 1748.25 572.351C1748.25 570.061 1748.61 567.882 1749.34 565.828C1750.06 563.76 1751.12 561.955 1752.46 560.387C1753.81 558.819 1755.45 557.583 1757.36 556.667C1759.28 555.751 1761.44 555.293 1763.86 555.293C1766.4 555.293 1768.68 555.821 1770.7 556.889C1772.71 557.944 1774.39 559.36 1775.73 561.109C1777.06 562.857 1778.03 564.87 1778.63 567.132C1779.22 569.394 1779.39 571.74 1779.1 574.155H1755.37L1755.38 574.141ZM1771.99 569.464C1771.91 568.34 1771.67 567.257 1771.27 566.216C1770.87 565.175 1770.34 564.273 1769.65 563.496C1768.95 562.733 1768.12 562.108 1767.15 561.622C1766.16 561.15 1765.08 560.901 1763.87 560.901C1762.67 560.901 1761.49 561.123 1760.47 561.553C1759.45 561.983 1758.57 562.594 1757.85 563.357C1757.11 564.134 1756.53 565.036 1756.1 566.077C1755.66 567.118 1755.42 568.242 1755.38 569.45H1771.99V569.464Z" fill="#140D4D"/>
<path d="M1812.91 588.45H1805.91V583.954H1805.79C1804.91 585.578 1803.61 586.882 1801.89 587.854C1800.15 588.839 1798.4 589.325 1796.61 589.325C1792.37 589.325 1789.3 588.27 1787.4 586.174C1785.5 584.079 1784.55 580.9 1784.55 576.653V556.168H1791.67V575.959C1791.67 578.791 1792.21 580.789 1793.3 581.955C1794.38 583.121 1795.91 583.704 1797.86 583.704C1799.36 583.704 1800.61 583.468 1801.61 583.01C1802.61 582.552 1803.41 581.941 1804.04 581.164C1804.66 580.387 1805.11 579.471 1805.38 578.388C1805.66 577.306 1805.79 576.14 1805.79 574.891V556.154H1812.91V588.437V588.45Z" fill="#140D4D"/>
<path d="M1850.26 586.757C1850.26 591.629 1848.9 595.265 1846.16 597.652C1843.43 600.039 1839.51 601.247 1834.39 601.247C1832.77 601.247 1831.13 601.08 1829.49 600.747C1827.86 600.414 1826.36 599.845 1825 599.068C1823.64 598.277 1822.51 597.236 1821.6 595.945C1820.68 594.654 1820.14 593.072 1819.97 591.198H1827.09C1827.3 592.198 1827.66 593.003 1828.16 593.627C1828.66 594.252 1829.26 594.737 1829.94 595.098C1830.63 595.445 1831.38 595.681 1832.21 595.778C1833.05 595.889 1833.92 595.931 1834.84 595.931C1837.71 595.931 1839.81 595.223 1841.14 593.808C1842.47 592.392 1843.14 590.352 1843.14 587.687V582.76H1843.01C1842.01 584.55 1840.65 585.938 1838.92 586.937C1837.18 587.937 1835.32 588.436 1833.32 588.436C1830.74 588.436 1828.55 587.992 1826.73 587.09C1824.93 586.202 1823.43 584.967 1822.23 583.412C1821.05 581.858 1820.18 580.054 1819.64 578.013C1819.1 575.973 1818.83 573.794 1818.83 571.449C1818.83 569.283 1819.17 567.229 1819.83 565.259C1820.5 563.302 1821.46 561.581 1822.71 560.109C1823.96 558.638 1825.48 557.459 1827.3 556.584C1829.1 555.71 1831.16 555.28 1833.45 555.28C1835.49 555.28 1837.36 555.71 1839.07 556.556C1840.78 557.417 1842.08 558.749 1843 560.581H1843.12V556.154H1850.24V586.757H1850.26ZM1834.45 582.829C1836.03 582.829 1837.38 582.51 1838.47 581.858C1839.57 581.205 1840.47 580.359 1841.15 579.29C1841.85 578.235 1842.34 577.028 1842.65 575.668C1842.97 574.322 1843.12 572.947 1843.12 571.573C1843.12 570.199 1842.96 568.867 1842.62 567.576C1842.29 566.286 1841.78 565.147 1841.1 564.148C1840.42 563.149 1839.51 562.358 1838.42 561.775C1837.32 561.192 1835.99 560.901 1834.45 560.901C1832.91 560.901 1831.53 561.234 1830.45 561.9C1829.37 562.566 1828.49 563.426 1827.83 564.495C1827.16 565.564 1826.68 566.771 1826.38 568.118C1826.09 569.478 1825.95 570.81 1825.95 572.142C1825.95 573.475 1826.12 574.779 1826.45 576.042C1826.79 577.319 1827.3 578.444 1827.98 579.443C1828.66 580.442 1829.53 581.261 1830.6 581.886C1831.66 582.51 1832.95 582.815 1834.45 582.815V582.829Z" fill="#140D4D"/>
<path d="M1887.85 588.45H1881.11V584.078H1880.98C1880.03 585.952 1878.62 587.298 1876.81 588.103C1874.97 588.908 1873.03 589.325 1870.99 589.325C1868.45 589.325 1866.23 588.881 1864.34 587.978C1862.44 587.09 1860.87 585.869 1859.62 584.328C1858.38 582.788 1857.43 580.97 1856.81 578.86C1856.18 576.75 1855.88 574.502 1855.88 572.087C1855.88 569.172 1856.27 566.646 1857.06 564.523C1857.85 562.399 1858.9 560.651 1860.21 559.277C1861.53 557.903 1863.02 556.89 1864.7 556.251C1866.38 555.613 1868.1 555.28 1869.85 555.28C1870.85 555.28 1871.87 555.377 1872.92 555.557C1873.96 555.738 1874.96 556.043 1875.92 556.459C1876.88 556.876 1877.76 557.403 1878.57 558.055C1879.37 558.708 1880.05 559.457 1880.6 560.332H1880.72V543.843H1887.84V588.436L1887.85 588.45ZM1863 572.642C1863 574.016 1863.18 575.362 1863.52 576.695C1863.87 578.027 1864.41 579.221 1865.15 580.262C1865.87 581.303 1866.8 582.135 1867.92 582.76C1869.05 583.385 1870.38 583.69 1871.92 583.69C1873.46 583.69 1874.86 583.357 1876.02 582.691C1877.15 582.024 1878.1 581.15 1878.82 580.067C1879.54 578.985 1880.1 577.764 1880.44 576.417C1880.79 575.071 1880.97 573.683 1880.97 572.267C1880.97 568.687 1880.17 565.897 1878.57 563.898C1876.96 561.9 1874.79 560.901 1872.05 560.901C1870.38 560.901 1868.98 561.248 1867.83 561.928C1866.67 562.608 1865.74 563.51 1865.02 564.606C1864.29 565.717 1863.77 566.966 1863.47 568.354C1863.15 569.755 1863 571.171 1863 572.628V572.642Z" fill="#140D4D"/>
<g clip-path="url(#clip0_6519_3)">
<path d="M920.169 472.108L1056.57 307.82L905.352 381.991L809.879 443.117L790.109 455.777L855.153 472.108H920.169Z" fill="#ED4B00"/>
<path d="M734.985 420.47L704.372 400.853L528.286 307.82L689.555 490.97H805.536H845.09L790.109 455.777L734.985 420.47Z" fill="#ED4B00"/>
<path d="M567.542 615.641L723.816 588.428L790.109 491.34L689.271 520.801L567.542 615.641Z" fill="#ED4B00"/>
<path d="M873.688 490.97H845.09L861.965 509.364L872.07 520.36L929.436 541.47L901.349 490.97H873.688Z" fill="#ED4B00"/>
</g>
<defs>
<clipPath id="clip0_6519_3">
<rect width="528.286" height="307.82" fill="white" transform="translate(528.286 307.82)"/>
</clipPath>
</defs>
</svg>
